<?xml version="1.0" encoding="utf-8"?>
<!-- Generator: Adobe Illustrator 26.0.2, SVG Export Plug-In . SVG Version: 6.00 Build 0)  -->
<svg version="1.1" id="Camada_1" xmlns="http://www.w3.org/2000/svg" xmlns:xlink="http://www.w3.org/1999/xlink" x="0px" y="0px"
	 viewBox="0 0 813.9 141.4" style="enable-background:new 0 0 813.9 141.4;" xml:space="preserve">
<style type="text/css">
	.st0{fill:url(#SVGID_1_);}
	.st1{fill:url(#SVGID_00000142860201815079354240000012495202024163928502_);}
	.st2{fill:url(#SVGID_00000019655308179969056770000013574848003245682314_);}
	.st3{fill:url(#SVGID_00000074410069130333650980000009372097448185596325_);}
	.st4{fill:#FFFFFF;}
</style>
<g id="Camada_2_00000088855643327165402970000006425931239536996511_">
	<g id="Camada_1-2">
		
			<linearGradient id="SVGID_1_" gradientUnits="userSpaceOnUse" x1="3.5206" y1="-45.6003" x2="84.0706" y2="106.3797" gradientTransform="matrix(1 0 0 1 0 43.72)">
			<stop  offset="0.13" style="stop-color:#DB4590"/>
			<stop  offset="0.27" style="stop-color:#E9A823"/>
			<stop  offset="0.29" style="stop-color:#EBB514"/>
			<stop  offset="0.29" style="stop-color:#DEB627"/>
			<stop  offset="0.31" style="stop-color:#BFB955"/>
			<stop  offset="0.33" style="stop-color:#A5BB7C"/>
			<stop  offset="0.34" style="stop-color:#8FBD9C"/>
			<stop  offset="0.36" style="stop-color:#7EBFB5"/>
			<stop  offset="0.38" style="stop-color:#72C0C7"/>
			<stop  offset="0.39" style="stop-color:#6BC1D2"/>
			<stop  offset="0.42" style="stop-color:#69C1D5"/>
			<stop  offset="0.48" style="stop-color:#6BC2D3"/>
		</linearGradient>
		<path class="st0" d="M134.6,124.7c-20.7,1.9-33.9-0.2-46.7-2.2c-9.5-1.5-19.4-3.1-32.6-3.1c-27,0-48.5,16.1-55.3,22h158.9
			L148,122.6C143.6,123.5,139.1,124.2,134.6,124.7z"/>
		
			<linearGradient id="SVGID_00000021115814834360644970000007521602006379447447_" gradientUnits="userSpaceOnUse" x1="16.9336" y1="-22.9319" x2="97.4936" y2="129.0481" gradientTransform="matrix(1 0 0 1 0 43.72)">
			<stop  offset="0.13" style="stop-color:#DB4590"/>
			<stop  offset="0.31" style="stop-color:#E9A823"/>
			<stop  offset="0.33" style="stop-color:#EBB514"/>
			<stop  offset="0.34" style="stop-color:#E9B517"/>
			<stop  offset="0.4" style="stop-color:#C3B950"/>
			<stop  offset="0.46" style="stop-color:#A4BC7F"/>
			<stop  offset="0.51" style="stop-color:#8BBFA3"/>
			<stop  offset="0.56" style="stop-color:#79C1BE"/>
			<stop  offset="0.61" style="stop-color:#6FC2CD"/>
			<stop  offset="0.64" style="stop-color:#6BC2D3"/>
			<stop  offset="1" style="stop-color:#69C1D5"/>
		</linearGradient>
		<path style="fill:url(#SVGID_00000021115814834360644970000007521602006379447447_);" d="M138.2,108.8
			c-28.9-1.6-44.8-7.9-51.5-10.6C53.6,85,29.4,86.6,29.1,86.6h-1.9L0,133.9c9.8-7.6,30-20.3,55.3-20.3c13.6,0,23.7,1.6,33.5,3.1
			c13,2.1,25.3,4,45.2,2.2c3.7-0.4,7.3-0.9,10.9-1.6l-4.8-8.4L138.2,108.8z"/>
		
			<linearGradient id="SVGID_00000147922505787856459860000010722287676257839016_" gradientUnits="userSpaceOnUse" x1="55.1708" y1="-43.2004" x2="135.7307" y2="108.7796" gradientTransform="matrix(1 0 0 1 0 43.72)">
			<stop  offset="0.13" style="stop-color:#DB4590"/>
			<stop  offset="0.39" style="stop-color:#E9A823"/>
			<stop  offset="0.43" style="stop-color:#EBB514"/>
			<stop  offset="0.49" style="stop-color:#DFB625"/>
			<stop  offset="0.6" style="stop-color:#C1B952"/>
			<stop  offset="0.77" style="stop-color:#91BE9A"/>
			<stop  offset="0.89" style="stop-color:#6BC2D3"/>
			<stop  offset="1" style="stop-color:#69C1D5"/>
		</linearGradient>
		<path style="fill:url(#SVGID_00000147922505787856459860000010722287676257839016_);" d="M88.7,64.2c9.8,6.6,26.9,16.5,36.5,18.7
			l-7.1-12.2L77.3,0L51.9,43.9C54.7,45.4,78.9,57.7,88.7,64.2z"/>
		
			<linearGradient id="SVGID_00000012471330936295471170000013392912921643017628_" gradientUnits="userSpaceOnUse" x1="39.6711" y1="-34.9906" x2="120.2211" y2="116.9994" gradientTransform="matrix(1 0 0 1 0 43.72)">
			<stop  offset="0.13" style="stop-color:#DB4590"/>
			<stop  offset="0.25" style="stop-color:#E9A823"/>
			<stop  offset="0.26" style="stop-color:#EBB514"/>
			<stop  offset="0.36" style="stop-color:#DCB72B"/>
			<stop  offset="0.58" style="stop-color:#B5BB65"/>
			<stop  offset="0.88" style="stop-color:#77C1C2"/>
			<stop  offset="0.94" style="stop-color:#6BC2D3"/>
			<stop  offset="1" style="stop-color:#69C1D5"/>
		</linearGradient>
		<path style="fill:url(#SVGID_00000012471330936295471170000013392912921643017628_);" d="M126,89.1c-10.7-1.3-30.6-13.2-40.7-20
			c-9.8-6.6-36-19.9-36.3-20L49,49L36.4,70.7l-5.8,10c6.6-0.1,28.8,0.4,58.1,12c10.4,4.2,24.3,8.6,47.8,10.1l-7.6-13.3
			C127.4,89.3,126.3,89.1,126,89.1z"/>
		<g>
			<g>
				<path class="st4" d="M192.4,117.5V40.5h15.5v64.4h34.9v12.7H192.4z"/>
				<path class="st4" d="M250.4,117.5V40.5H266v77.1H250.4z"/>
				<path class="st4" d="M317.1,118.7c-8.5,0-15.8-1.6-22.1-4.8c-6.1-3-11.2-7.7-14.6-13.5c-3.6-6.2-5.4-13.3-5.2-20.5
					c-0.2-7.4,1.7-14.8,5.5-21.2c3.6-6.1,8.9-11,15.3-14.2c7-3.5,14.8-5.2,22.7-5.1c4.7,0,9.4,0.5,13.9,1.6
					c4.4,0.9,8.6,2.5,12.6,4.5l-2.5,12.7c-3.8-1.8-7.8-3.2-11.9-4.1c-4.1-1-8.3-1.4-12.6-1.5c-5-0.1-9.9,1-14.4,3.3
					c-4,2.1-7.3,5.4-9.6,9.3c-2.4,4.3-3.6,9.1-3.5,14c0,8.2,2.4,14.6,7.4,19.4c4.9,4.7,11.6,7.1,20,7.1c4.8,0,9.7-0.6,14.3-2v-17
					H317V74.8h29.5V113c-4.5,1.9-9.3,3.4-14.1,4.2C327.4,118.2,322.2,118.7,317.1,118.7z"/>
				<path class="st4" d="M357.8,117.5V40.5h15.5v31h37v-31h15.5v77.1h-15.5V84.1h-37v33.5H357.8z"/>
			</g>
			<g>
				<path class="st4" d="M463.8,117.5V53.1H439V40.5h65.2v12.7h-24.9v64.4H463.8z"/>
			</g>
			<g>
				<path class="st4" d="M533.1,117.5L510,40.5h16.2L541,99.2l16.8-57.7h13.9l16.8,57l14.7-58h16l-23.1,77.1h-14.8l-16.8-56.7
					L548,117.5H533.1z"/>
			</g>
			<g>
				<path class="st4" d="M611,117.5l30.6-77.1H658l30.7,77.1h-16.4L665,97.3h-31.3l-7.3,20.3H611z M638,85.3h22.7l-11.4-31.6
					L638,85.3z"/>
			</g>
			<g>
				<path class="st4" d="M709.8,117.5l-29.3-77.1h17.1l20.6,61l20.5-61h16.5l-29.3,77H709.8z"/>
				<path class="st4" d="M761.6,117.5V40.5h50.9v12.1h-36.4v19.7h32.2v12.1h-32.2v21.2h37.8v12.1H761.6z"/>
			</g>
		</g>
	</g>
</g>
</svg>
