<svg xmlns="http://www.w3.org/2000/svg" xmlns:xlink="http://www.w3.org/1999/xlink" viewBox="0 0 625.35 556.51"><defs><style>.cls-1{fill:url(#Gradiente_sem_nome);}.cls-2{fill:url(#Gradiente_sem_nome_2);}.cls-3{fill:url(#Gradiente_sem_nome_3);}.cls-4{fill:url(#Gradiente_sem_nome_4);}</style><linearGradient id="Gradiente_sem_nome" x1="13.84" y1="638.12" x2="330.84" y2="40.01" gradientTransform="matrix(1, 0, 0, -1, 0, 630.72)" gradientUnits="userSpaceOnUse"><stop offset="0.13" stop-color="#db4590"/><stop offset="0.27" stop-color="#e9a823"/><stop offset="0.29" stop-color="#ebb514"/><stop offset="0.29" stop-color="#deb627"/><stop offset="0.31" stop-color="#bfb955"/><stop offset="0.33" stop-color="#a5bb7c"/><stop offset="0.34" stop-color="#8fbd9c"/><stop offset="0.36" stop-color="#7ebfb5"/><stop offset="0.38" stop-color="#72c0c7"/><stop offset="0.39" stop-color="#6bc1d2"/><stop offset="0.42" stop-color="#69c1d5"/><stop offset="0.48" stop-color="#6bc2d3"/></linearGradient><linearGradient id="Gradiente_sem_nome_2" x1="66.71" y1="548.95" x2="383.71" y2="-49.16" gradientTransform="matrix(1, 0, 0, -1, 0, 630.72)" gradientUnits="userSpaceOnUse"><stop offset="0.13" stop-color="#db4590"/><stop offset="0.31" stop-color="#e9a823"/><stop offset="0.33" stop-color="#ebb514"/><stop offset="0.34" stop-color="#e9b517"/><stop offset="0.4" stop-color="#c3b950"/><stop offset="0.46" stop-color="#a4bc7f"/><stop offset="0.51" stop-color="#8bbfa3"/><stop offset="0.56" stop-color="#79c1be"/><stop offset="0.61" stop-color="#6fc2cd"/><stop offset="0.64" stop-color="#6bc2d3"/><stop offset="1" stop-color="#69c1d5"/></linearGradient><linearGradient id="Gradiente_sem_nome_3" x1="217.13" y1="628.67" x2="534.13" y2="30.56" gradientTransform="matrix(1, 0, 0, -1, 0, 630.72)" gradientUnits="userSpaceOnUse"><stop offset="0.13" stop-color="#db4590"/><stop offset="0.39" stop-color="#e9a823"/><stop offset="0.43" stop-color="#ebb514"/><stop offset="0.49" stop-color="#dfb625"/><stop offset="0.6" stop-color="#c1b952"/><stop offset="0.77" stop-color="#91be9a"/><stop offset="0.89" stop-color="#6bc2d3"/><stop offset="1" stop-color="#69c1d5"/></linearGradient><linearGradient id="Gradiente_sem_nome_4" x1="156.07" y1="596.32" x2="473.07" y2="-1.8" gradientTransform="matrix(1, 0, 0, -1, 0, 630.72)" gradientUnits="userSpaceOnUse"><stop offset="0.13" stop-color="#db4590"/><stop offset="0.25" stop-color="#e9a823"/><stop offset="0.26" stop-color="#ebb514"/><stop offset="0.36" stop-color="#dcb72b"/><stop offset="0.58" stop-color="#b5bb65"/><stop offset="0.88" stop-color="#77c1c2"/><stop offset="0.94" stop-color="#6bc2d3"/><stop offset="1" stop-color="#69c1d5"/></linearGradient></defs><g id="Camada_2" data-name="Camada 2"><g id="Camada_1-2" data-name="Camada 1"><path class="cls-1" d="M529.72,490.66c-81.26,7.56-133.39-.67-183.8-8.65-37.53-5.94-76.34-12.07-128.18-12.07C111.3,469.94,27.08,533.49.07,556.51H625.35l-42.8-74.15A446.78,446.78,0,0,1,529.72,490.66Z"/><path class="cls-2" d="M543.73,428C429.88,421.61,367.59,396.87,341,386.3c-130-51.66-225.32-45.52-226.23-45.44h-7.5L0,526.62c38.67-29.86,118.11-79.82,217.74-79.82,53.66,0,93.38,6.29,131.79,12.36,51.26,8.12,99.69,15.77,178,8.47a417.33,417.33,0,0,0,42.8-6.34L551.4,428.5C548,428.3,545.37,428.13,543.73,428Z"/><path class="cls-3" d="M348.88,252.77c38.41,25.91,105.85,65.12,143.57,73.56l-27.78-48.07L304.05,0,204.22,172.9C215.31,178.5,310.46,226.85,348.88,252.77Z"/><path class="cls-4" d="M496,350.45c-42.25-5.3-120.55-51.85-160.06-78.5-38.67-26.09-141.68-78.18-142.72-78.7l-.59-.27L143.4,278.26l-22.65,39.21c25.84-.57,113.37,1.49,228.78,47.33,41.1,16.33,95.6,33.67,188,39.63l-30.14-52.19C501.56,351.41,497.09,350.64,496,350.45Z"/></g></g></svg>