<?xml version="1.0" encoding="utf-8"?>
<!-- Generator: Adobe Illustrator 26.0.2, SVG Export Plug-In . SVG Version: 6.00 Build 0)  -->
<svg version="1.1" id="Camada_1" xmlns="http://www.w3.org/2000/svg" xmlns:xlink="http://www.w3.org/1999/xlink" x="0px" y="0px"
	 viewBox="0 0 813.9 141.4" style="enable-background:new 0 0 813.9 141.4;" xml:space="preserve">
<style type="text/css">
	.st0{fill:#FFFFFF;}
</style>
<g id="Camada_2_00000088855643327165402970000006425931239536996511_">
	<g id="Camada_1-2">
		<path class="st0" d="M134.6,124.7c-20.7,1.9-33.9-0.2-46.7-2.2c-9.5-1.5-19.4-3.1-32.6-3.1c-27,0-48.5,16.1-55.3,22h158.9
			L148,122.6C143.6,123.5,139.1,124.2,134.6,124.7z"/>
		<path class="st0" d="M138.2,108.8c-28.9-1.6-44.8-7.9-51.5-10.6C53.6,85,29.4,86.6,29.1,86.6h-1.9L0,133.9
			c9.8-7.6,30-20.3,55.3-20.3c13.6,0,23.7,1.6,33.5,3.1c13,2.1,25.3,4,45.2,2.2c3.7-0.4,7.3-0.9,10.9-1.6l-4.8-8.4L138.2,108.8z"/>
		<path class="st0" d="M88.7,64.2c9.8,6.6,26.9,16.5,36.5,18.7l-7.1-12.2L77.3,0L51.9,43.9C54.7,45.4,78.9,57.7,88.7,64.2z"/>
		<path class="st0" d="M126,89.1c-10.7-1.3-30.6-13.2-40.7-20c-9.8-6.6-36-19.9-36.3-20l0-0.1L36.4,70.7l-5.8,10
			c6.6-0.1,28.8,0.4,58.1,12c10.4,4.2,24.3,8.6,47.8,10.1l-7.6-13.3C127.4,89.3,126.3,89.1,126,89.1z"/>
		<g>
			<g>
				<path class="st0" d="M192.4,117.5v-77h15.5v64.4h34.9v12.7L192.4,117.5L192.4,117.5z"/>
				<path class="st0" d="M250.4,117.5v-77H266v77.1L250.4,117.5L250.4,117.5z"/>
				<path class="st0" d="M317.1,118.7c-8.5,0-15.8-1.6-22.1-4.8c-6.1-3-11.2-7.7-14.6-13.5c-3.6-6.2-5.4-13.3-5.2-20.5
					c-0.2-7.4,1.7-14.8,5.5-21.2c3.6-6.1,8.9-11,15.3-14.2c7-3.5,14.8-5.2,22.7-5.1c4.7,0,9.4,0.5,13.9,1.6
					c4.4,0.9,8.6,2.5,12.6,4.5l-2.5,12.7c-3.8-1.8-7.8-3.2-11.9-4.1c-4.1-1-8.3-1.4-12.6-1.5c-5-0.1-9.9,1-14.4,3.3
					c-4,2.1-7.3,5.4-9.6,9.3c-2.4,4.3-3.6,9.1-3.5,14c0,8.2,2.4,14.6,7.4,19.4c4.9,4.7,11.6,7.1,20,7.1c4.8,0,9.7-0.6,14.3-2v-17
					H317V74.8h29.5V113c-4.5,1.9-9.3,3.4-14.1,4.2C327.4,118.2,322.2,118.7,317.1,118.7z"/>
				<path class="st0" d="M357.8,117.5v-77h15.5v31h37v-31h15.5v77.1h-15.5V84.1h-37v33.5L357.8,117.5L357.8,117.5z"/>
			</g>
			<g>
				<path class="st0" d="M463.8,117.5V53.1H439V40.5h65.2v12.7h-24.9v64.4h-15.5V117.5z"/>
			</g>
			<g>
				<path class="st0" d="M533.1,117.5l-23.1-77h16.2L541,99.2l16.8-57.7h13.9l16.8,57l14.7-58h16l-23.1,77.1h-14.8l-16.8-56.7
					L548,117.5H533.1z"/>
			</g>
			<g>
				<path class="st0" d="M611,117.5l30.6-77.1H658l30.7,77.1h-16.4L665,97.3h-31.3l-7.3,20.3H611V117.5z M638,85.3h22.7l-11.4-31.6
					L638,85.3z"/>
			</g>
			<g>
				<path class="st0" d="M709.8,117.5l-29.3-77.1h17.1l20.6,61l20.5-61h16.5l-29.3,77L709.8,117.5L709.8,117.5z"/>
				<path class="st0" d="M761.6,117.5v-77h50.9v12.1h-36.4v19.7h32.2v12.1h-32.2v21.2h37.8v12.1h-52.3V117.5z"/>
			</g>
		</g>
	</g>
</g>
</svg>
