<svg id="Modo_de_isolamento" data-name="Modo de isolamento" xmlns="http://www.w3.org/2000/svg" viewBox="0 0 87.36 71"><defs><style>.cls-1{fill:#fff;}</style></defs><path class="cls-1" d="M1428.75,521.46c33,0,51-27.31,51-51,0-.78,0-1.55,0-2.32a36.69,36.69,0,0,0,8.94-9.28,35.55,35.55,0,0,1-10.3,2.82,18,18,0,0,0,7.89-9.91,36.17,36.17,0,0,1-11.39,4.35,17.93,17.93,0,0,0-30.54,16.34,50.87,50.87,0,0,1-36.94-18.72,17.93,17.93,0,0,0,5.54,23.92,17.66,17.66,0,0,1-8.11-2.24,1.77,1.77,0,0,0,0,.23,17.93,17.93,0,0,0,14.38,17.57,18,18,0,0,1-8.09.31A18,18,0,0,0,1427.81,506a35.93,35.93,0,0,1-22.26,7.67,35.36,35.36,0,0,1-4.27-.25,50.67,50.67,0,0,0,27.47,8.05" transform="translate(-1401.28 -450.46)"/></svg>